HIERARCHY
ROOT Hips
{
	OFFSET 0.00000 0.00000 0.00000
	CHANNELS 6 Xposition Yposition Zposition Zrotation Yrotation Xrotation 
	JOINT LHipJoint
	{
		OFFSET 0 0 0
		CHANNELS 3 Zrotation Yrotation Xrotation
		JOINT LeftHip
		{
			OFFSET 1.62964 -1.40469 0.78906
			CHANNELS 3 Zrotation Yrotation Xrotation
			JOINT LeftKnee
			{
				OFFSET 2.29640 -6.30932 0.00000
				CHANNELS 3 Zrotation Yrotation Xrotation
				JOINT LeftAnkle
				{
					OFFSET 2.29451 -6.30412 0.00000
					CHANNELS 3 Zrotation Yrotation Xrotation
					JOINT LeftToe
					{
						OFFSET 0.03611 -0.09921 1.56387
						CHANNELS 3 Zrotation Yrotation Xrotation
						End Site
						{
							OFFSET 0.00000 -0.00000 0.80291
						}
					}
				}
			}
		}
	}
	JOINT RHipJoint
	{
		OFFSET 0 0 0
		CHANNELS 3 Zrotation Yrotation Xrotation
		JOINT RightHip
		{
			OFFSET -1.73712 -1.40469 0.78906
			CHANNELS 3 Zrotation Yrotation Xrotation
			JOINT RightKnee
			{
				OFFSET -2.28137 -6.26801 0.00000
				CHANNELS 3 Zrotation Yrotation Xrotation
				JOINT RightAnkle
				{
					OFFSET -2.28681 -6.28298 0.00000
					CHANNELS 3 Zrotation Yrotation Xrotation
					JOINT RightToe
					{
						OFFSET -0.15927 -0.43759 1.61103
						CHANNELS 3 Zrotation Yrotation Xrotation
						End Site
						{
							OFFSET -0.00000 -0.00000 0.84630
						}
					}
				}
			}
		}
	}
	JOINT lowerback
	{
		OFFSET 0 0 0
		CHANNELS 3 Zrotation Yrotation Xrotation
		JOINT Chest
		{
			OFFSET -0.04227 2.04338 -0.00225
			CHANNELS 3 Zrotation Yrotation Xrotation
			JOINT Chest2
			{
				OFFSET -0.02148 2.04482 -0.04273
				CHANNELS 3 Zrotation Yrotation Xrotation
				JOINT lowerneck
				{
					OFFSET 0 0 0
					CHANNELS 3 Zrotation Yrotation Xrotation
					JOINT Neck
					{
						OFFSET 0.09180 1.44629 0.19359
						CHANNELS 3 Zrotation Yrotation Xrotation
						JOINT Head
						{
							OFFSET 0.00887 1.40645 0.14750
							CHANNELS 3 Zrotation Yrotation Xrotation
							End Site
							{
								OFFSET -0.00669 1.50671 0.03707
							}
						}
					}
				}
				JOINT LeftCollar
				{
					OFFSET 0 0 0
					CHANNELS 3 Zrotation Yrotation Xrotation
					JOINT LeftShoulder
					{
						OFFSET 2.17674 1.86763 -0.06520
CHANNELS 3 Zrotation Xrotation Yrotation
						JOINT LeftElbow
						{
OFFSET 0 -4.657760 0.000000
CHANNELS 3 Zrotation Xrotation Yrotation
							JOINT LeftWrist
							{
OFFSET 0 -3.555390 0.000000
CHANNELS 3 Zrotation Xrotation Yrotation
								JOINT lhand
								{
									OFFSET 0 0 0
CHANNELS 3 Zrotation Xrotation Yrotation
									JOINT LFingers
									{
OFFSET 0 -0.707260 0.000000
CHANNELS 3 Zrotation Xrotation Yrotation
										End Site
										{
OFFSET 0 -0.570220 0.000000
										}
									}
								}
								JOINT LThumb
								{
OFFSET 0 0.000000 0.000000
CHANNELS 3 Zrotation Xrotation Yrotation
									End Site
									{
OFFSET 0 -0.578920 0.578920
									}
								}
							}
						}
					}
				}
				JOINT RightCollar
				{
					OFFSET 0 0 0
					CHANNELS 3 Zrotation Yrotation Xrotation
					JOINT RightShoulder
					{
						OFFSET -2.80694 1.55459 -0.32496
CHANNELS 3 Zrotation Xrotation Yrotation
						JOINT RightElbow
						{
OFFSET 0 -4.719250 -0.000000
CHANNELS 3 Zrotation Xrotation Yrotation
							JOINT RightWrist
							{
OFFSET 0 -3.569900 0.000000
CHANNELS 3 Zrotation Xrotation Yrotation
								JOINT rhand
								{
									OFFSET 0 0 0
CHANNELS 3 Zrotation Xrotation Yrotation
									JOINT RFingers
									{
OFFSET 0 -0.507760 0.000000
CHANNELS 3 Zrotation Xrotation Yrotation
										End Site
										{
OFFSET 0 -0.409370 0.000000
										}
									}
								}
								JOINT RThumb
								{
OFFSET 0 0.000000 0.000000
CHANNELS 3 Zrotation Xrotation Yrotation
									End Site
									{
OFFSET 0 -0.415620 0.415620
									}
								}
							}
						}
					}
				}
			}
		}
	}
}
MOTION
Frames: 8
Frame Time: 0.008333333333333333
2.966859 17.474135 18.021856 170.606304 -5.971663 -149.914382 0.000000 0.000000 0.000000 -6.009018 -31.361321 -36.923271 9.553443 17.150871 57.984991 2.635803 -7.572007 -29.332101 6.628013 -15.006652 -47.445876 0.000000 0.000000 0.000000 2.979134 15.203078 -32.225799 -0.690291 -5.311427 14.799062 -0.679003 -8.397614 -20.810043 -0.371965 3.916974 -10.843330 -10.718705 -4.994719 -17.328214 -2.156572 -4.504535 0.908618 2.389592 -2.804909 11.444823 -1.587334 -3.246268 -2.338892 3.888363 -3.455721 21.917349 1.372945 -0.855925 7.171410 0.000000 0.000000 0.000000 13.671280 -0.000586 -19.807879 14.187676 -23.002274 2.901055 22.173183 -0.931238 13.958416 0.000000 0.000000 0.000000 -7.125000 0.000000 0.000000 -3.588813 14.975822 -2.544585 0.000000 0.000000 0.000000 1.092687 11.694690 1.827550 -18.301542 -28.541534 -4.692443 -10.502385 3.534074 53.436323 0.000000 0.000000 0.000000 7.125000 0.000000 0.000000 69.071249 75.282740 -54.287142
2.992563 17.476363 18.000294 170.573818 -5.807645 -149.881431 0.000000 0.000000 0.000000 -6.076885 -31.075257 -36.765453 9.490717 17.113231 57.772094 2.648225 -7.102585 -29.441631 6.986301 -15.317315 -48.817061 0.000000 0.000000 0.000000 3.032860 15.291044 -32.237430 -0.692230 -5.318855 14.820288 -0.689382 -8.285086 -20.814690 -0.358546 3.846505 -10.645323 -10.661033 -5.038180 -17.532471 -2.161974 -4.540489 0.974210 2.321119 -2.824211 11.637182 -1.523554 -3.133516 -2.417957 3.767118 -3.291133 21.915668 1.332940 -0.785040 7.176737 0.000000 0.000000 0.000000 13.659477 0.017640 -19.557750 14.214318 -23.040235 2.911463 22.075092 -1.294307 14.026044 0.000000 0.000000 0.000000 -7.125000 0.000000 0.000000 -3.659238 14.914437 -2.599648 0.000000 0.000000 0.000000 1.129186 11.585920 1.947939 -18.247096 -28.472386 -4.666473 -10.559391 3.673606 53.169175 0.000000 0.000000 0.000000 7.125000 0.000000 0.000000 68.061489 75.228389 -53.300520
3.018613 17.478163 17.979670 170.530691 -5.702192 -149.826404 0.000000 0.000000 0.000000 -6.087418 -30.857360 -36.662197 9.436072 17.080219 57.586312 2.647930 -6.897205 -29.457326 7.189683 -15.489595 -49.588125 0.000000 0.000000 0.000000 3.084204 15.337291 -32.256052 -0.691963 -5.317935 14.817600 -0.694654 -8.219704 -20.810379 -0.351894 3.811433 -10.546804 -10.625157 -5.105004 -17.729181 -2.143876 -4.606009 1.029409 2.282925 -2.858497 11.821320 -1.461453 -3.005261 -2.440870 3.630109 -3.109518 21.811735 1.288597 -0.712810 7.138283 0.000000 0.000000 0.000000 13.608944 0.022861 -19.268586 14.231802 -23.065130 2.918300 22.028515 -1.519520 14.060454 0.000000 0.000000 0.000000 -7.125000 0.000000 0.000000 -3.692808 14.882846 -2.626067 0.000000 0.000000 0.000000 1.119472 11.459754 2.078771 -18.184035 -28.392193 -4.636430 -10.577143 3.780760 52.979841 0.000000 0.000000 0.000000 7.125000 0.000000 0.000000 67.355605 75.181541 -52.600721
3.044618 17.479428 17.959358 170.450568 -5.654329 -149.767366 0.000000 0.000000 0.000000 -6.081725 -30.732044 -36.575256 9.386241 17.049927 57.416576 2.628602 -7.041286 -29.331096 7.183077 -15.484113 -49.563314 0.000000 0.000000 0.000000 3.114285 15.306647 -32.251272 -0.688308 -5.304089 14.777960 -0.692616 -8.205225 -20.778611 -0.356252 3.834486 -10.611606 -10.630779 -5.174725 -17.801573 -2.111827 -4.691052 1.022873 2.290375 -2.900316 11.870307 -1.394894 -2.867645 -2.296718 3.502192 -2.925585 21.508109 1.246216 -0.646954 7.005377 0.000000 0.000000 0.000000 13.511741 0.095745 -19.004741 14.244383 -23.082982 2.923220 22.143921 -1.526407 14.018776 0.000000 0.000000 0.000000 -7.125000 0.000000 0.000000 -3.611912 14.914685 -2.565834 0.000000 0.000000 0.000000 1.069641 11.425455 2.212099 -18.133009 -28.327110 -4.612182 -10.492240 3.828763 53.043378 0.000000 0.000000 0.000000 7.125000 0.000000 0.000000 67.625986 75.168257 -52.833150
3.069297 17.479566 17.935798 170.360503 -5.606532 -149.787197 0.000000 0.000000 0.000000 -6.125010 -30.659882 -36.345554 9.322558 17.010820 57.198989 2.574014 -7.812085 -28.956460 6.753158 -15.114835 -47.924391 0.000000 0.000000 0.000000 3.147813 15.302315 -32.092664 -0.680014 -5.272614 14.687883 -0.689584 -8.242443 -20.780313 -0.356367 3.835336 -10.613842 -10.575427 -5.191558 -17.866741 -2.154207 -4.709288 1.079565 2.198145 -2.908068 11.966816 -1.400445 -2.988179 -2.706510 3.573902 -3.089939 21.967598 1.259773 -0.700530 7.234343 0.000000 0.000000 0.000000 13.534036 0.099436 -18.862580 14.265712 -23.113228 2.931586 22.257869 -1.496776 13.943561 0.000000 0.000000 0.000000 -7.125000 0.000000 0.000000 -3.530153 14.982446 -2.502419 0.000000 0.000000 0.000000 1.169993 11.317921 2.193521 -18.052688 -28.224448 -4.574149 -10.329329 3.953450 53.171535 0.000000 0.000000 0.000000 7.125000 0.000000 0.000000 68.166249 75.143707 -53.301260
3.093384 17.480477 17.911933 170.278977 -5.535120 -149.807043 0.000000 0.000000 0.000000 -6.175388 -30.571447 -36.104516 9.260962 16.972715 56.988197 2.514151 -8.663985 -28.563040 6.241857 -14.648652 -45.926076 0.000000 0.000000 0.000000 3.185023 15.327287 -31.915067 -0.669100 -5.230822 14.568214 -0.688795 -8.267906 -20.794055 -0.354582 3.825740 -10.586849 -10.527979 -5.231334 -17.923210 -2.166646 -4.757085 1.148634 2.134219 -2.930799 12.080273 -1.400886 -2.988531 -3.046542 3.574943 -3.098758 22.174224 1.258102 -0.700268 7.362597 0.000000 0.000000 0.000000 13.493212 0.060774 -18.601860 14.278576 -23.131537 2.936651 22.261863 -1.479782 13.922916 0.000000 0.000000 0.000000 -7.125000 0.000000 0.000000 -3.526364 15.004045 -2.498041 0.000000 0.000000 0.000000 1.207766 11.153713 2.208535 -17.957252 -28.102221 -4.529140 -10.183163 4.081419 53.080430 0.000000 0.000000 0.000000 7.125000 0.000000 0.000000 67.902837 75.061147 -52.970027
3.116959 17.482301 17.888294 170.211699 -5.440199 -149.815114 0.000000 0.000000 0.000000 -6.219269 -30.458911 -35.879176 9.204131 16.937293 56.793406 2.453783 -9.487004 -28.182712 5.727336 -14.158833 -43.877480 0.000000 0.000000 0.000000 3.228406 15.375015 -31.748794 -0.657177 -5.184935 14.436779 -0.692245 -8.261593 -20.822329 -0.349471 3.797843 -10.508610 -10.493903 -5.293579 -17.988238 -2.143129 -4.832156 1.216690 2.108550 -2.967588 12.205885 -1.398944 -2.867203 -3.246316 3.505638 -2.947167 22.094962 1.242510 -0.644422 7.366711 0.000000 0.000000 0.000000 13.383570 0.002013 -18.233602 14.281488 -23.135775 2.937821 22.166450 -1.467039 13.950681 0.000000 0.000000 0.000000 -7.125000 0.000000 0.000000 -3.593020 14.984881 -2.546918 0.000000 0.000000 0.000000 1.179298 10.965354 2.255996 -17.856845 -27.973448 -4.481922 -10.046095 4.197655 52.798711 0.000000 0.000000 0.000000 7.125000 0.000000 0.000000 66.944857 74.925922 -51.945342
3.140152 17.485394 17.867701 170.198346 -5.329291 -149.754669 0.000000 0.000000 0.000000 -6.167611 -30.289597 -35.822457 9.166459 16.913608 56.664083 2.415619 -9.672905 -27.955906 5.659934 -14.090377 -43.601053 0.000000 0.000000 0.000000 3.299323 15.396733 -31.770301 -0.655912 -5.180155 14.423214 -0.715298 -8.087992 -20.899641 -0.327613 3.678150 -10.172934 -10.484696 -5.340599 -18.203236 -2.080787 -4.872780 1.202212 2.143973 -2.989024 12.323822 -1.455874 -2.778927 -3.028787 3.491651 -2.818478 21.922064 1.256988 -0.595364 7.268243 0.000000 0.000000 0.000000 13.237450 0.083261 -17.945087 14.269048 -23.118064 2.932901 22.088927 -1.366815 13.943302 0.000000 0.000000 0.000000 -7.125000 0.000000 0.000000 -3.645592 15.001117 -2.583044 0.000000 0.000000 0.000000 1.149497 10.999793 2.238495 -17.824444 -27.931840 -4.466740 -9.809871 4.216702 52.658143 0.000000 0.000000 0.000000 7.125000 0.000000 0.000000 66.559350 74.792664 -51.448787
